<svg xmlns="http://www.w3.org/2000/svg" viewBox="0 0 760 640" role="img" aria-labelledby="title desc">
  <title id="title">RapidKit ecosystem hero visual</title>
  <desc id="desc">A constellation of tool nodes connected into the RapidKit icon at the center.</desc>

  <defs>
    <linearGradient id="bg" x1="0%" y1="0%" x2="100%" y2="100%">
      <stop offset="0%" stop-color="#f8fafc" />
      <stop offset="100%" stop-color="#e2e8f0" />
    </linearGradient>
    <radialGradient id="glowA" cx="50%" cy="50%" r="50%">
      <stop offset="0%" stop-color="#3b82f6" stop-opacity="0.22" />
      <stop offset="100%" stop-color="#3b82f6" stop-opacity="0" />
    </radialGradient>
    <radialGradient id="glowB" cx="50%" cy="50%" r="50%">
      <stop offset="0%" stop-color="#06b6d4" stop-opacity="0.22" />
      <stop offset="100%" stop-color="#06b6d4" stop-opacity="0" />
    </radialGradient>
    <linearGradient id="ring" x1="0%" y1="0%" x2="100%" y2="100%">
      <stop offset="0%" stop-color="#2563eb" />
      <stop offset="100%" stop-color="#06b6d4" />
    </linearGradient>
    <linearGradient id="line" x1="0%" y1="0%" x2="100%" y2="0%">
      <stop offset="0%" stop-color="#94a3b8" stop-opacity="0.25" />
      <stop offset="100%" stop-color="#2563eb" stop-opacity="0.65" />
    </linearGradient>
    <filter id="shadow" x="-20%" y="-20%" width="140%" height="140%">
      <feDropShadow dx="0" dy="18" stdDeviation="24" flood-color="#0f172a" flood-opacity="0.12" />
    </filter>
    <symbol id="icon-shadcn" viewBox="0 0 24 24">
      <path fill="#111111" d="M22.219 11.784 11.784 22.219c-.407.407-.407 1.068 0 1.476.407.407 1.068.407 1.476 0L23.695 13.26c.407-.408.407-1.069 0-1.476-.408-.407-1.069-.407-1.476 0ZM20.132.305.305 20.132c-.407.407-.407 1.068 0 1.476.408.407 1.069.407 1.476 0L21.608 1.781c.407-.407.407-1.068 0-1.476-.408-.407-1.069-.407-1.476 0Z"/>
    </symbol>
    <symbol id="icon-zod" viewBox="0 0 24 24">
      <path fill="#3E67B1" d="M2.584 3.582a2.247 2.247 0 0 1 2.112-1.479h14.617c.948 0 1.794.595 2.115 1.487l2.44 6.777a2.248 2.248 0 0 1-.624 2.443l-9.61 8.52a2.247 2.247 0 0 1-2.963.018L.776 12.773a2.248 2.248 0 0 1-.64-2.467Zm12.038 4.887-9.11 5.537 5.74 5.007c.456.399 1.139.396 1.593-.006l5.643-5.001H14.4l6.239-3.957c.488-.328.69-.947.491-1.5l-1.24-3.446a1.535 1.535 0 0 0-1.456-1.015H5.545a1.535 1.535 0 0 0-1.431 1.01l-1.228 3.37z"/>
    </symbol>
    <symbol id="icon-tanstack" viewBox="0 0 24 24">
      <path fill="#FF4154" d="M11.078.042c.316-.042.65-.014.97-.014 1.181 0 2.341.184 3.472.532a12.3 12.3 0 0 1 3.973 2.086 11.9 11.9 0 0 1 3.432 4.33c1.446 3.15 1.436 6.97-.046 10.107-.958 2.029-2.495 3.727-4.356 4.965-1.518 1.01-3.293 1.629-5.1 1.848-2.298.279-4.784-.129-6.85-1.188-3.88-1.99-6.518-5.994-6.57-10.382-.01-.846.003-1.697.17-2.534.273-1.365.748-2.683 1.463-3.88a12 12 0 0 1 2.966-3.36A12.3 12.3 0 0 1 9.357.3a12 12 0 0 1 1.255-.2l.133-.016zM7.064 19.99c-.535.057-1.098.154-1.557.454.103.025.222 0 .33 0 .258 0 .52-.01.778.002.647.028 1.32.131 1.945.303.8.22 1.505.65 2.275.942.813.307 1.622.402 2.484.402.435 0 .866-.001 1.287-.12-.22-.117-.534-.095-.778-.144a11 11 0 0 1-1.556-.416 12 12 0 0 1-1.093-.467l-.23-.108a15 15 0 0 0-1.012-.44c-.905-.343-1.908-.512-2.873-.408m.808-2.274c-1.059 0-2.13.187-3.083.667q-.346.177-.659.41c-.063.046-.175.106-.199.188s.061.151.11.204c.238-.127.464-.261.718-.357 1.64-.624 3.63-.493 5.268.078.817.285 1.569.712 2.365 1.046.89.374 1.798.616 2.753.74 1.127.147 2.412.028 3.442-.48.362-.179.865-.451 1.018-.847-.189.017-.36.098-.539.154a9 9 0 0 1-.868.222c-.994.2-2.052.24-3.053.06-.943-.17-1.82-.513-2.693-.873l-.111-.046-.223-.092-.112-.046a26 26 0 0 0-1.35-.527c-.89-.31-1.842-.5-2.784-.5"/>
    </symbol>
    <symbol id="icon-redux" viewBox="0 0 24 24">
      <path fill="#764ABC" d="M16.634 16.504c.87-.075 1.543-.84 1.5-1.754-.047-.914-.796-1.648-1.709-1.648h-.061a1.71 1.71 0 00-1.648 1.769c.03.479.226.869.494 1.153-1.048 2.038-2.621 3.536-5.005 4.795-1.603.838-3.296 1.154-4.944.93-1.378-.195-2.456-.81-3.116-1.799-.988-1.499-1.078-3.116-.255-4.734.6-1.17 1.499-2.023 2.099-2.443a9.96 9.96 0 01-.42-1.543C-.868 14.408-.416 18.752.932 20.805c1.004 1.498 3.057 2.456 5.304 2.456.6 0 1.23-.044 1.843-.194 3.897-.749 6.848-3.086 8.541-6.532zm5.348-3.746c-2.32-2.728-5.738-4.226-9.634-4.226h-.51c-.253-.554-.837-.899-1.498-.899h-.045c-.943 0-1.678.81-1.647 1.753.03.898.794 1.648 1.708 1.648h.074a1.69 1.69 0 001.499-1.049h.555c2.309 0 4.495.674 6.488 1.992 1.527 1.005 2.622 2.323 3.237 3.897.538 1.288.509 2.547-.045 3.597-.855 1.647-2.294 2.517-4.196 2.517-1.199 0-2.367-.375-2.967-.644-.36.298-.96.793-1.394 1.093 1.318.598 2.652.943 3.94.943 2.922 0 5.094-1.647 5.919-3.236.898-1.798.824-4.824-1.47-7.416zM6.49 17.042c.03.899.793 1.648 1.708 1.648h.06a1.688 1.688 0 001.648-1.768c0-.9-.779-1.647-1.693-1.647h-.06c-.06 0-.15 0-.226.029-1.243-2.098-1.768-4.347-1.572-6.772.12-1.828.72-3.417 1.797-4.735.9-1.124 2.593-1.68 3.747-1.708 3.236-.061 4.585 3.971 4.689 5.574l1.498.45C17.741 3.197 14.686.62 11.764.62 9.02.62 6.49 2.613 5.47 5.535 4.077 9.43 4.991 13.177 6.7 16.174c-.15.195-.24.539-.21.868z"/>
    </symbol>
    <symbol id="icon-rhf" viewBox="0 0 24 24">
      <path fill="#EC5990" d="M10.7754 17.3477H5.8065a.2815.2815 0 1 0 0 .563h4.9689a.2815.2815 0 1 0 0-.563zm7.3195 0h-4.9688a.2815.2815 0 1 0 0 .563h4.9688a.2815.2815 0 0 0 0-.563zm-7.3336-6.475H5.8065a.2815.2815 0 1 0 0 .563h4.9548a.2815.2815 0 1 0 0-.563zm7.3195 0h-4.9547a.2815.2815 0 1 0 0 .563h4.9547a.2815.2815 0 0 0 0-.563zm.5518-9.2001h-4.341a2.4042 2.4042 0 0 0-4.5804 0H5.3674c-1.7103 0-3.0968 1.3864-3.0968 3.0967v16.134C2.2706 22.6135 3.6571 24 5.3674 24h13.2652c1.7103 0 3.0968-1.3865 3.0968-3.0967V4.7693c0-1.7103-1.3865-3.0967-3.0968-3.0967zm-8.7046.563a.2815.2815 0 0 0 .2815-.2224 1.8411 1.8411 0 0 1 3.5979 0 .2815.2815 0 0 0 .2815.2224h1.5146v1.844a.8446.8446 0 0 1-.8446.8446H9.2552a.8446.8446 0 0 1-.8446-.8446v-1.844Zm11.2383 18.6677c0 1.3993-1.1344 2.5337-2.5337 2.5337H5.3674c-1.3993 0-2.5337-1.1344-2.5337-2.5337V4.7693c0-1.3993 1.1344-2.5337 2.5337-2.5337h2.4802v1.844c0 .7774.6302 1.4076 1.4076 1.4076h5.4896c.7774 0 1.4076-.6302 1.4076-1.4076v-1.844h2.4802c1.3993 0 2.5337 1.1344 2.5337 2.5337z"/>
    </symbol>
    <symbol id="icon-tailwind" viewBox="0 0 24 24">
      <path fill="#06B6D4" d="M12.001 4.8c-3.2 0-5.2 1.6-6 4.8 1.2-1.6 2.6-2.2 4.2-1.8.913.228 1.565.89 2.288 1.624C13.666 10.618 15.027 12 18.001 12c3.2 0 5.2-1.6 6-4.8-1.2 1.6-2.6 2.2-4.2 1.8-.913-.228-1.565-.89-2.288-1.624C16.337 6.182 14.976 4.8 12.001 4.8zM6.001 12c-3.2 0-5.2 1.6-6 4.8 1.2-1.6 2.6-2.2 4.2-1.8.913.228 1.565.89 2.288 1.624 1.177 1.194 2.538 2.576 5.512 2.576 3.2 0 5.2-1.6 6-4.8-1.2 1.6-2.6 2.2-4.2 1.8-.913-.228-1.565-.89-2.288-1.624C10.337 13.382 8.976 12 6.001 12z"/>
    </symbol>
  </defs>

  <rect width="760" height="640" rx="40" fill="url(#bg)" />
  <circle cx="152" cy="118" r="124" fill="url(#glowA)" />
  <circle cx="620" cy="118" r="136" fill="url(#glowB)" />

  <g stroke="url(#line)" stroke-width="5" stroke-linecap="round">
    <line x1="338" y1="116" x2="372" y2="236" />
    <line x1="558" y1="242" x2="454" y2="282" />
    <line x1="550" y1="428" x2="458" y2="360" />
    <line x1="84" y1="435" x2="298" y2="364" />
    <line x1="54" y1="251" x2="302" y2="286" />
    <line x1="114" y1="107" x2="312" y2="230" />
  </g>

  <circle cx="392" cy="320" r="126" fill="#ffffff" />

  <g filter="url(#shadow)">
    <g transform="translate(308 62)">
      <rect width="178" height="54" rx="18" fill="#ffffff" />
      <use href="#icon-shadcn" x="16" y="12" width="28" height="28"/>
      <text x="58" y="33" font-size="20" font-family="Inter, Arial, sans-serif" font-weight="700" fill="#111827">shadcn/ui</text>
    </g>

    <g transform="translate(528 188)">
      <rect width="146" height="54" rx="18" fill="#ffffff" />
      <use href="#icon-zod" x="16" y="12" width="28" height="28"/>
      <text x="60" y="33" font-size="20" font-family="Inter, Arial, sans-serif" font-weight="700" fill="#111827">Zod</text>
    </g>

    <g transform="translate(520 402)">
      <rect width="176" height="54" rx="18" fill="#ffffff" />
      <use href="#icon-tanstack" x="14" y="10" width="32" height="32"/>
      <text x="62" y="33" font-size="20" font-family="Inter, Arial, sans-serif" font-weight="700" fill="#111827">TanStack</text>
    </g>

    <g transform="translate(54 408)">
      <rect width="208" height="54" rx="18" fill="#ffffff" />
      <use href="#icon-redux" x="14" y="10" width="32" height="32"/>
      <text x="62" y="33" font-size="20" font-family="Inter, Arial, sans-serif" font-weight="700" fill="#111827">Redux Toolkit</text>
    </g>

    <g transform="translate(24 224)">
      <rect width="250" height="54" rx="18" fill="#ffffff" />
      <use href="#icon-rhf" x="14" y="10" width="32" height="32"/>
      <text x="68" y="33" font-size="20" font-family="Inter, Arial, sans-serif" font-weight="700" fill="#111827">React Hook Form</text>
    </g>

    <g transform="translate(84 80)">
      <rect width="198" height="54" rx="18" fill="#ffffff" />
      <use href="#icon-tailwind" x="14" y="11" width="30" height="30"/>
      <text x="60" y="33" font-size="20" font-family="Inter, Arial, sans-serif" font-weight="700" fill="#111827">Tailwind CSS</text>
    </g>
  </g>

  <g transform="translate(392 320)">
    <circle cx="0" cy="0" r="86" fill="#ffffff" />
    <g transform="translate(-52 -52)">
      <rect x="0" y="0" width="104" height="104" rx="22" fill="#111111"/>
      <path d="M37 22V11l7 7 8-8 8 8 8-8v12" fill="none" stroke="#ffcc99" stroke-width="4.5" stroke-linecap="round" stroke-linejoin="round"/>
      <rect x="15" y="24" width="74" height="54" rx="14" fill="#ffffff"/>
      <circle cx="36" cy="45" r="7" fill="#111111"/>
      <circle cx="68" cy="45" r="7" fill="#111111"/>
      <rect x="28" y="60" width="32" height="8" rx="4" fill="#ffcc99"/>
      <circle cx="8" cy="43" r="4" fill="#ffcc99"/>
      <circle cx="96" cy="43" r="4" fill="#ffcc99"/>
    </g>
  </g>
</svg>